<svg width="21" height="25" viewBox="0 0 21 25" fill="none" xmlns="http://www.w3.org/2000/svg">
<path d="M4.9104 6.6856V1L9.70838 2.55934V6.6856H4.9104Z" stroke="black" style="stroke:black;stroke:black;stroke-opacity:1;" stroke-width="0.5"/>
<path d="M11.1957 6.6856V2.58333L16.1136 1V6.6856H11.1957Z" stroke="black" style="stroke:black;stroke:black;stroke-opacity:1;" stroke-width="0.5"/>
<path d="M11.1957 22.1351V8.14905H16.1136V23.7185L11.1957 22.1351Z" stroke="black" style="stroke:black;stroke:black;stroke-opacity:1;" stroke-width="0.5"/>
<path d="M20 3.27905L18.0808 3.90279V20.8157L20 21.4394V3.27905Z" stroke="black" style="stroke:black;stroke:black;stroke-opacity:1;" stroke-width="0.5"/>
<path d="M18.0568 1.57581L16.1376 2.19954V6.68565H17.0972V8.14903H16.1376V22.519L18.0568 23.1427V1.57581Z" stroke="black" style="stroke:black;stroke:black;stroke-opacity:1;" stroke-width="0.5"/>
<path d="M9.70838 8.14905H4.9104V23.7185L9.70838 22.1591V8.14905Z" stroke="black" style="stroke:black;stroke:black;stroke-opacity:1;" stroke-width="0.5"/>
<path d="M2.89526 22.9027V1.33582L4.88642 1.98354V6.68556H3.80688V8.14894H4.88642V22.255L2.89526 22.9027Z" stroke="black" style="stroke:black;stroke:black;stroke-opacity:1;" stroke-width="0.5"/>
<path d="M1 21.4393V3.255L2.87121 3.87874V20.8396L1 21.4393Z" stroke="black" style="stroke:black;stroke:black;stroke-opacity:1;" stroke-width="0.5"/>
</svg>
