<svg width="77" height="78" viewBox="0 0 77 78" fill="none" xmlns="http://www.w3.org/2000/svg">
<path d="M30.9522 54.9988H45.0552C46.4021 54.9988 47.4717 53.9292 47.4717 52.5823C47.4717 51.3938 46.6398 50.4035 45.491 50.2054L37.7264 48.8981C37.3303 48.8188 36.9737 48.6604 36.6568 48.4227C35.5476 47.5115 32.3784 45.2139 28.1395 45.2139L11.9766 48.1454V55.6723L31.903 63.1199C33.6857 63.7934 35.5872 64.1103 37.4887 64.1103C39.9052 64.1103 42.2425 63.5557 44.4214 62.5257L63.5951 53.2954C63.9912 53.0973 64.0309 52.5823 63.6347 52.3446C63.5951 52.305 63.5555 52.305 63.4762 52.2654C61.6143 51.1165 59.3959 50.7996 57.2567 51.2354L47.3133 53.3746" stroke="#FF3838" stroke-width="1.5" stroke-miterlimit="10" stroke-linecap="round" stroke-linejoin="round"/>
<path d="M48.58 45.2156C55.8437 45.2156 61.7322 39.3271 61.7322 32.0634C61.7322 24.7996 55.8437 18.9111 48.58 18.9111C41.3162 18.9111 35.4277 24.7996 35.4277 32.0634C35.4277 39.3271 41.3162 45.2156 48.58 45.2156Z" stroke="#FF3838" stroke-width="1.5" stroke-miterlimit="10"/>
<path d="M48.58 42.1257C55.8437 42.1257 61.7322 36.2373 61.7322 28.9735C61.7322 21.7097 55.8437 15.8213 48.58 15.8213C41.3162 15.8213 35.4277 21.7097 35.4277 28.9735C35.4277 36.2373 41.3162 42.1257 48.58 42.1257Z" stroke="#FF3838" stroke-width="1.5" stroke-miterlimit="10"/>
<circle cx="38.4" cy="39.1998" r="37.65" stroke="#FF3838" stroke-width="1.5"/>
</svg>
