<svg width="60" height="58" viewBox="0 0 60 58" fill="none" xmlns="http://www.w3.org/2000/svg">
<path d="M32 42C39.732 42 46 35.732 46 28C46 20.268 39.732 14 32 14C24.268 14 18 20.268 18 28C18 35.732 24.268 42 32 42Z" stroke="#FF3838" stroke-width="1.5" stroke-miterlimit="10"/>
<path d="M28 42C35.732 42 42 35.732 42 28C42 20.268 35.732 14 28 14C20.268 14 14 20.268 14 28C14 35.732 20.268 42 28 42Z" stroke="#FF3838" stroke-width="1.5" stroke-miterlimit="10"/>
<path d="M30 1V10.0061" stroke="#FF3838" stroke-width="1.5" stroke-miterlimit="10" stroke-linecap="round"/>
<path d="M8.9707 8.86523L15.6727 15.5672" stroke="#FF3838" stroke-width="1.5" stroke-miterlimit="10" stroke-linecap="round"/>
<path d="M1 29H9.74546" stroke="#FF3838" stroke-width="1.5" stroke-miterlimit="10" stroke-linecap="round"/>
<path d="M8.9707 48.4092L15.3232 42.0566" stroke="#FF3838" stroke-width="1.5" stroke-miterlimit="10" stroke-linecap="round"/>
<path d="M30 57.0005V47.7871" stroke="#FF3838" stroke-width="1.5" stroke-miterlimit="10" stroke-linecap="round"/>
<path d="M44 42.0566L50.4888 48.5454" stroke="#FF3838" stroke-width="1.5" stroke-miterlimit="10" stroke-linecap="round"/>
<path d="M50 29H59.0061" stroke="#FF3838" stroke-width="1.5" stroke-miterlimit="10" stroke-linecap="round"/>
<path d="M44 15.568L50.5954 8.97266" stroke="#FF3838" stroke-width="1.5" stroke-miterlimit="10" stroke-linecap="round"/>
</svg>
