<svg width="86" height="103" viewBox="0 0 86 103" fill="none" xmlns="http://www.w3.org/2000/svg">
<path d="M18.3845 26.2767V1L39.715 7.93242V26.2767H18.3845Z" stroke="#DAB146" style="stroke:#DAB146;stroke:color(display-p3 0.8549 0.6941 0.2745);stroke-opacity:1;"/>
<path d="M46.3274 26.2767V8.03907L68.1912 1V26.2767H46.3274Z" stroke="#DAB146" style="stroke:#DAB146;stroke:color(display-p3 0.8549 0.6941 0.2745);stroke-opacity:1;"/>
<path d="M46.3274 94.9609V32.7825H68.1912V102L46.3274 94.9609Z" stroke="#DAB146" style="stroke:#DAB146;stroke:color(display-p3 0.8549 0.6941 0.2745);stroke-opacity:1;"/>
<path d="M85.469 11.132L76.9368 13.905V89.0951L85.469 91.868V11.132Z" stroke="#DAB146" style="stroke:#DAB146;stroke:color(display-p3 0.8549 0.6941 0.2745);stroke-opacity:1;"/>
<path d="M76.8301 3.55967L68.2979 6.33264V26.2767H72.564V32.7825H68.2979V96.6674L76.8301 99.4403V3.55967Z" stroke="#DAB146" style="stroke:#DAB146;stroke:color(display-p3 0.8549 0.6941 0.2745);stroke-opacity:1;"/>
<path d="M39.715 32.7825H18.3845V102L39.715 95.0676V32.7825Z" stroke="#DAB146" style="stroke:#DAB146;stroke:color(display-p3 0.8549 0.6941 0.2745);stroke-opacity:1;"/>
<path d="M9.42554 98.3738V2.49313L18.2777 5.37275V26.2767H13.4783V32.7825H18.2777V95.4942L9.42554 98.3738Z" stroke="#DAB146" style="stroke:#DAB146;stroke:color(display-p3 0.8549 0.6941 0.2745);stroke-opacity:1;"/>
<path d="M1 91.868V11.0254L9.3189 13.7983V89.2017L1 91.868Z" stroke="#DAB146" style="stroke:#DAB146;stroke:color(display-p3 0.8549 0.6941 0.2745);stroke-opacity:1;"/>
</svg>
